<svg width="121" height="31" viewBox="0 0 121 31" fill="none" xmlns="http://www.w3.org/2000/svg">
<path d="M18.3568 14.3605C18.3697 13.359 18.6357 12.3769 19.1301 11.5058C19.6246 10.6346 20.3313 9.90268 21.1846 9.37807C20.6425 8.60388 19.9274 7.96675 19.096 7.51729C18.2646 7.06782 17.3399 6.81841 16.3952 6.78885C14.3801 6.57734 12.4266 7.99465 11.3998 7.99465C10.353 7.99465 8.77203 6.80985 7.06955 6.84488C5.96834 6.88046 4.89513 7.20068 3.95447 7.77435C3.01382 8.34802 2.23781 9.15558 1.70205 10.1183C-0.618753 14.1364 1.11235 20.0417 3.33549 23.2896C4.44777 24.88 5.7477 26.6566 7.44864 26.5936C9.11311 26.5245 9.73476 25.5322 11.7439 25.5322C13.7344 25.5322 14.3177 26.5936 16.0531 26.5535C17.8392 26.5245 18.9645 24.956 20.0377 23.3506C20.8369 22.2173 21.4519 20.9649 21.8598 19.6395C20.8222 19.2007 19.9367 18.4661 19.3137 17.5273C18.6908 16.5885 18.358 15.4872 18.3568 14.3605Z" fill="white"/>
<path d="M15.0788 4.65286C16.0526 3.48381 16.5324 1.98119 16.4162 0.464111C14.9284 0.620376 13.5541 1.33145 12.5671 2.45564C12.0845 3.00484 11.715 3.64377 11.4795 4.33589C11.244 5.02801 11.1472 5.75977 11.1947 6.48931C11.9388 6.49698 12.675 6.33568 13.3478 6.01758C14.0206 5.69947 14.6125 5.23285 15.0788 4.65286Z" fill="white"/>
<path d="M39.3968 22.5675H33.7168L32.3527 26.5952H29.9468L35.3269 11.6936H37.8265L43.2066 26.5952H40.7597L39.3968 22.5675ZM34.305 20.7089H38.8074L36.5879 14.1721H36.5258L34.305 20.7089Z" fill="white"/>
<path d="M54.8258 21.1635C54.8258 24.5397 53.0187 26.7088 50.2918 26.7088C49.601 26.7449 48.914 26.5858 48.3094 26.2496C47.7049 25.9135 47.2072 25.4139 46.8734 24.808H46.8218V30.1893H44.5917V15.7307H46.7504V17.5377H46.7914C47.1405 16.9347 47.6466 16.4377 48.2558 16.0995C48.8649 15.7613 49.5544 15.5945 50.2508 15.617C53.0081 15.617 54.8258 17.7967 54.8258 21.1635ZM52.5336 21.1635C52.5336 18.9639 51.3968 17.5178 49.6625 17.5178C47.9586 17.5178 46.8125 18.9943 46.8125 21.1635C46.8125 23.3526 47.9586 24.8186 49.6625 24.8186C51.3969 24.8186 52.5336 23.383 52.5336 21.1635Z" fill="white"/>
<path d="M66.7836 21.1635C66.7836 24.5397 64.9765 26.7088 62.2496 26.7088C61.5588 26.7449 60.8718 26.5858 60.2673 26.2496C59.6627 25.9135 59.165 25.4138 58.8312 24.808H58.7796V30.1892H56.5496V15.7307H58.7081V17.5377H58.7492C59.0983 16.9347 59.6044 16.4377 60.2135 16.0995C60.8227 15.7613 61.5122 15.5945 62.2085 15.617C64.966 15.617 66.7836 17.7967 66.7836 21.1635ZM64.4914 21.1635C64.4914 18.9639 63.3547 17.5178 61.6203 17.5178C59.9164 17.5178 58.7703 18.9943 58.7703 21.1635C58.7703 23.3525 59.9164 24.8186 61.6203 24.8186C63.3547 24.8186 64.4914 23.383 64.4914 21.1635H64.4914Z" fill="white"/>
<path d="M74.6867 22.4432C74.852 23.9209 76.2875 24.8912 78.2492 24.8912C80.1289 24.8912 81.4812 23.9209 81.4812 22.5884C81.4812 21.4318 80.6656 20.7392 78.7344 20.2646L76.8031 19.7994C74.0668 19.1384 72.7965 17.8587 72.7965 15.7822C72.7965 13.2111 75.0371 11.4451 78.2187 11.4451C81.3675 11.4451 83.5262 13.2111 83.5988 15.7822H81.3476C81.2129 14.2951 79.9836 13.3974 78.1871 13.3974C76.3906 13.3974 75.1613 14.3056 75.1613 15.6275C75.1613 16.681 75.9465 17.3009 77.8672 17.7755L79.5089 18.1786C82.5664 18.9017 83.8367 20.1298 83.8367 22.3095C83.8367 25.0974 81.616 26.8435 78.0839 26.8435C74.7793 26.8435 72.548 25.1384 72.4039 22.4431L74.6867 22.4432Z" fill="white"/>
<path d="M88.6496 13.1597V15.7308H90.7156V17.4968H88.6496V23.4862C88.6496 24.4167 89.0633 24.8503 89.9715 24.8503C90.2167 24.846 90.4616 24.8288 90.7051 24.7987V26.5542C90.2967 26.6305 89.8817 26.665 89.4664 26.6573C87.2668 26.6573 86.409 25.8311 86.409 23.7241V17.4968H84.8293V15.7308H86.4089V13.1597H88.6496Z" fill="white"/>
<path d="M91.9121 21.1636C91.9121 17.7452 93.9254 15.5972 97.0648 15.5972C100.215 15.5972 102.219 17.7452 102.219 21.1636C102.219 24.5913 100.225 26.73 97.0648 26.73C93.9054 26.73 91.9121 24.5913 91.9121 21.1636ZM99.9465 21.1636C99.9465 18.8187 98.8719 17.4347 97.0648 17.4347C95.2578 17.4347 94.1844 18.8292 94.1844 21.1636C94.1844 23.5179 95.2578 24.8913 97.0648 24.8913C98.8719 24.8913 99.9464 23.5179 99.9464 21.1636H99.9465Z" fill="white"/>
<path d="M104.057 15.7306H106.184V17.5798H106.236C106.38 17.0022 106.718 16.4918 107.194 16.1344C107.67 15.7769 108.254 15.5942 108.849 15.6169C109.106 15.616 109.362 15.6439 109.613 15.7001V17.786C109.289 17.6869 108.95 17.6414 108.611 17.6513C108.287 17.6381 107.964 17.6952 107.665 17.8187C107.365 17.9422 107.095 18.129 106.874 18.3665C106.654 18.604 106.487 18.8864 106.386 19.1944C106.284 19.5024 106.251 19.8287 106.287 20.1509V26.595H104.057L104.057 15.7306Z" fill="white"/>
<path d="M119.895 23.4042C119.595 25.3765 117.675 26.73 115.217 26.73C112.057 26.73 110.095 24.6124 110.095 21.2151C110.095 17.8073 112.067 15.5972 115.123 15.5972C118.129 15.5972 120.02 17.662 120.02 20.9562V21.7202H112.346V21.855C112.311 22.2548 112.361 22.6576 112.493 23.0366C112.625 23.4156 112.836 23.7622 113.113 24.0532C113.389 24.3443 113.725 24.5732 114.096 24.7248C114.468 24.8763 114.868 24.9471 115.269 24.9323C115.796 24.9817 116.325 24.8596 116.777 24.5843C117.229 24.309 117.58 23.8951 117.778 23.4042L119.895 23.4042ZM112.357 20.1616H117.788C117.808 19.8021 117.754 19.4423 117.628 19.1049C117.503 18.7674 117.309 18.4596 117.058 18.2007C116.808 17.9417 116.507 17.7373 116.174 17.6003C115.841 17.4632 115.483 17.3965 115.123 17.4042C114.76 17.402 114.4 17.4718 114.064 17.6095C113.728 17.7472 113.423 17.9501 113.165 18.2064C112.908 18.4628 112.704 18.7676 112.566 19.1031C112.427 19.4387 112.356 19.7985 112.357 20.1616V20.1616Z" fill="white"/>
<path d="M34.0255 0.477119C34.4931 0.443568 34.9622 0.5142 35.3992 0.68392C35.8361 0.853639 36.2299 1.11822 36.5522 1.45857C36.8745 1.79892 37.1173 2.20655 37.263 2.65208C37.4086 3.0976 37.4536 3.56991 37.3947 4.03493C37.3947 6.32243 36.1584 7.63733 34.0255 7.63733H31.4392V0.477119H34.0255ZM32.5513 6.62472H33.9013C34.2354 6.64469 34.5697 6.58991 34.88 6.46437C35.1902 6.33884 35.4686 6.1457 35.6948 5.89902C35.921 5.65234 36.0893 5.35833 36.1875 5.03839C36.2858 4.71845 36.3114 4.38063 36.2626 4.04952C36.3079 3.71972 36.2796 3.38399 36.1799 3.0664C36.0801 2.7488 35.9114 2.4572 35.6857 2.21248C35.46 1.96776 35.183 1.77599 34.8745 1.65091C34.566 1.52583 34.2337 1.47053 33.9013 1.48897H32.5513V6.62472Z" fill="white"/>
<path d="M38.6509 4.93305C38.6169 4.57795 38.6576 4.21966 38.7702 3.88118C38.8828 3.5427 39.0649 3.23149 39.3048 2.96751C39.5447 2.70353 39.8372 2.49261 40.1634 2.34828C40.4896 2.20395 40.8424 2.12939 41.1992 2.12939C41.5559 2.12939 41.9087 2.20395 42.2349 2.34828C42.5611 2.49261 42.8536 2.70353 43.0935 2.96751C43.3334 3.23149 43.5155 3.5427 43.6281 3.88118C43.7407 4.21966 43.7814 4.57795 43.7474 4.93305C43.782 5.28851 43.7419 5.64729 43.6296 5.98632C43.5173 6.32535 43.3353 6.63713 43.0953 6.90163C42.8553 7.16613 42.5626 7.37749 42.236 7.52213C41.9095 7.66677 41.5563 7.74149 41.1992 7.74149C40.842 7.74149 40.4888 7.66677 40.1623 7.52213C39.8357 7.37749 39.543 7.16613 39.303 6.90163C39.0631 6.63713 38.8811 6.32535 38.7687 5.98632C38.6564 5.64729 38.6163 5.28851 38.6509 4.93305ZM42.6505 4.93305C42.6505 3.76176 42.1243 3.0768 41.2009 3.0768C40.274 3.0768 39.7525 3.76176 39.7525 4.93306C39.7525 6.11373 40.274 6.79341 41.2009 6.79341C42.1244 6.7934 42.6505 6.10902 42.6505 4.93305H42.6505Z" fill="white"/>
<path d="M50.522 7.63716H49.4158L48.299 3.65747H48.2146L47.1025 7.63716H46.0068L44.5173 2.23364H45.599L46.5669 6.35684H46.6466L47.7576 2.23364H48.7806L49.8916 6.35684H49.9759L50.9392 2.23364H52.0056L50.522 7.63716Z" fill="white"/>
<path d="M53.2584 2.23365H54.2849V3.09204H54.3646C54.4998 2.78374 54.7278 2.52529 55.0169 2.35272C55.3059 2.18016 55.6416 2.10207 55.9771 2.12934C56.24 2.10958 56.504 2.14922 56.7496 2.24533C56.9951 2.34145 57.2158 2.49157 57.3954 2.68459C57.5751 2.8776 57.7089 3.10855 57.7872 3.36034C57.8654 3.61212 57.886 3.87828 57.8474 4.1391V7.6371H56.781V4.4069C56.781 3.53854 56.4037 3.1067 55.615 3.1067C55.4365 3.09838 55.2583 3.12876 55.0926 3.19576C54.927 3.26276 54.7777 3.36478 54.6552 3.49484C54.5326 3.62491 54.4397 3.77993 54.3826 3.94928C54.3256 4.11864 54.3059 4.29833 54.3248 4.47603V7.63717H53.2584L53.2584 2.23365Z" fill="white"/>
<path d="M59.5466 0.124268H60.613V7.63716H59.5466V0.124268Z" fill="white"/>
<path d="M62.0955 4.93315C62.0615 4.57802 62.1022 4.21972 62.2148 3.88123C62.3274 3.54273 62.5096 3.23151 62.7495 2.96752C62.9895 2.70354 63.282 2.49262 63.6082 2.34828C63.9344 2.20395 64.2873 2.12939 64.644 2.12939C65.0007 2.12939 65.3535 2.20395 65.6798 2.34828C66.006 2.49262 66.2985 2.70354 66.5385 2.96752C66.7784 3.23151 66.9605 3.54273 67.0732 3.88123C67.1858 4.21972 67.2265 4.57802 67.1925 4.93315C67.2271 5.28863 67.1869 5.64741 67.0746 5.98644C66.9622 6.32547 66.7802 6.63724 66.5402 6.90173C66.3002 7.16622 66.0075 7.37757 65.6809 7.52221C65.3544 7.66684 65.0012 7.74156 64.644 7.74156C64.2868 7.74156 63.9336 7.66684 63.6071 7.52221C63.2805 7.37757 62.9878 7.16622 62.7478 6.90173C62.5078 6.63724 62.3258 6.32547 62.2134 5.98644C62.1011 5.64741 62.0609 5.28863 62.0955 4.93315ZM66.0951 4.93315C66.0951 3.76186 65.5689 3.07691 64.6455 3.07691C63.7185 3.07691 63.1971 3.76187 63.1971 4.93316C63.1971 6.11383 63.7185 6.79351 64.6455 6.79351C65.5689 6.7935 66.0951 6.10912 66.0951 4.93315H66.0951Z" fill="white"/>
<path d="M68.3152 6.10907C68.3152 5.13641 69.0394 4.57568 70.3249 4.49599L71.7886 4.41161V3.94521C71.7886 3.3745 71.4113 3.05224 70.6824 3.05224C70.0871 3.05224 69.6746 3.2708 69.5562 3.65283H68.5238C68.6328 2.7247 69.5058 2.12939 70.7316 2.12939C72.0863 2.12939 72.8503 2.8038 72.8503 3.94521V7.6372H71.8238V6.87783H71.7394C71.5682 7.15022 71.3277 7.37228 71.0425 7.52133C70.7574 7.67038 70.4378 7.74109 70.1164 7.72623C69.8895 7.74982 69.6603 7.72562 69.4433 7.65519C69.2264 7.58475 69.0267 7.46964 68.857 7.31727C68.6873 7.16491 68.5514 6.97868 68.4581 6.77058C68.3648 6.56248 68.3161 6.33714 68.3152 6.10907ZM71.7886 5.64735V5.1956L70.4691 5.27997C69.725 5.32977 69.3874 5.5829 69.3874 6.05926C69.3874 6.54559 69.8093 6.82859 70.3894 6.82859C70.5594 6.8458 70.7311 6.82864 70.8943 6.77813C71.0575 6.72762 71.2089 6.6448 71.3395 6.53459C71.47 6.42438 71.577 6.28904 71.6542 6.13661C71.7314 5.98419 71.7771 5.8178 71.7886 5.64735Z" fill="white"/>
<path d="M74.2519 4.93307C74.2519 3.22565 75.1296 2.14401 76.4949 2.14401C76.8326 2.12845 77.1677 2.20934 77.4611 2.37721C77.7546 2.54508 77.9942 2.79301 78.1519 3.09201H78.2316V0.124268H79.298V7.63715H78.2761V6.78344H78.1917C78.0218 7.08043 77.7739 7.32527 77.4748 7.49145C77.1757 7.65763 76.8368 7.73881 76.4949 7.72621C75.1203 7.72627 74.2519 6.6446 74.2519 4.93307ZM75.3535 4.93307C75.3535 6.07917 75.8937 6.76882 76.7973 6.76882C77.6961 6.76882 78.2515 6.06922 78.2515 4.93777C78.2515 3.81159 77.6902 3.10202 76.7973 3.10202C75.8996 3.10202 75.3535 3.79635 75.3535 4.93307H75.3535Z" fill="white"/>
<path d="M83.7101 4.93305C83.6761 4.57795 83.7168 4.21966 83.8294 3.88118C83.942 3.5427 84.1241 3.23149 84.364 2.96751C84.604 2.70353 84.8964 2.49261 85.2226 2.34828C85.5488 2.20395 85.9016 2.12939 86.2584 2.12939C86.6151 2.12939 86.9679 2.20395 87.2941 2.34828C87.6203 2.49261 87.9128 2.70353 88.1527 2.96751C88.3926 3.23149 88.5747 3.5427 88.6873 3.88118C88.7999 4.21966 88.8406 4.57795 88.8066 4.93305C88.8412 5.28851 88.8011 5.64729 88.6888 5.98632C88.5764 6.32535 88.3944 6.63713 88.1545 6.90163C87.9145 7.16613 87.6218 7.37749 87.2952 7.52213C86.9687 7.66677 86.6155 7.74149 86.2584 7.74149C85.9012 7.74149 85.548 7.66677 85.2215 7.52213C84.8949 7.37749 84.6022 7.16613 84.3622 6.90163C84.1223 6.63713 83.9403 6.32535 83.8279 5.98632C83.7156 5.64729 83.6755 5.28851 83.7101 4.93305ZM87.7097 4.93305C87.7097 3.76176 87.1835 3.0768 86.2601 3.0768C85.3332 3.0768 84.8117 3.76176 84.8117 4.93306C84.8117 6.11373 85.3332 6.79341 86.2601 6.79341C87.1835 6.7934 87.7097 6.10902 87.7097 4.93305Z" fill="white"/>
<path d="M90.2374 2.23365H91.264V3.09204H91.3437C91.4789 2.78374 91.7069 2.52529 91.9959 2.35272C92.285 2.18016 92.6207 2.10207 92.9562 2.12934C93.2191 2.10958 93.4831 2.14922 93.7286 2.24533C93.9741 2.34145 94.1949 2.49157 94.3745 2.68459C94.5541 2.8776 94.688 3.10855 94.7663 3.36034C94.8445 3.61212 94.8651 3.87828 94.8265 4.1391V7.6371H93.7601V4.4069C93.7601 3.53854 93.3828 3.1067 92.5941 3.1067C92.4156 3.09838 92.2374 3.12876 92.0717 3.19576C91.906 3.26276 91.7568 3.36478 91.6343 3.49484C91.5117 3.62491 91.4187 3.77993 91.3617 3.94928C91.3047 4.11864 91.2849 4.29833 91.3038 4.47603V7.63717H90.2374V2.23365Z" fill="white"/>
<path d="M100.852 0.888428V2.25835H102.023V3.1566H100.852V5.93511C100.852 6.50113 101.085 6.74898 101.616 6.74898C101.752 6.74854 101.888 6.74032 102.023 6.72436V7.61264C101.831 7.6469 101.637 7.66513 101.443 7.66713C100.257 7.66713 99.7847 7.24994 99.7847 6.20815V3.15655H98.9269V2.2583H99.7847V0.888428H100.852Z" fill="white"/>
<path d="M103.48 0.124268H104.537V3.10201H104.621C104.763 2.79082 104.997 2.53091 105.292 2.3577C105.587 2.18448 105.928 2.10638 106.269 2.13404C106.53 2.11981 106.792 2.16347 107.034 2.26192C107.277 2.36038 107.495 2.51118 107.673 2.70359C107.851 2.89599 107.984 3.12526 108.063 3.37502C108.142 3.62478 108.164 3.88888 108.13 4.14849V7.63717H107.062V4.41157C107.062 3.54848 106.66 3.11137 105.907 3.11137C105.723 3.09634 105.539 3.12153 105.366 3.1852C105.194 3.24886 105.037 3.34946 104.908 3.47994C104.778 3.61043 104.679 3.76765 104.616 3.94062C104.554 4.11358 104.53 4.29811 104.546 4.48129V7.63715H103.48L103.48 0.124268Z" fill="white"/>
<path d="M114.348 6.17807C114.203 6.67191 113.889 7.09909 113.461 7.38487C113.033 7.67065 112.518 7.79683 112.006 7.74134C111.65 7.75074 111.296 7.68255 110.969 7.54152C110.642 7.40049 110.35 7.18998 110.113 6.92462C109.875 6.65925 109.698 6.34538 109.594 6.0048C109.49 5.66421 109.461 5.30507 109.51 4.95229C109.463 4.59843 109.492 4.23851 109.596 3.8969C109.699 3.55529 109.875 3.23997 110.112 2.97229C110.348 2.7046 110.639 2.49079 110.965 2.34534C111.291 2.19989 111.644 2.1262 112.002 2.12924C113.505 2.12924 114.412 3.15644 114.412 4.85324V5.22535H110.596V5.28511C110.58 5.4834 110.605 5.683 110.67 5.8711C110.735 6.0592 110.838 6.23165 110.974 6.3774C111.109 6.52315 111.274 6.63897 111.456 6.71745C111.639 6.79592 111.837 6.83532 112.035 6.83311C112.291 6.86373 112.549 6.8178 112.778 6.70115C113.007 6.5845 113.196 6.40241 113.321 6.17803L114.348 6.17807ZM110.596 4.43666H113.326C113.339 4.25531 113.314 4.07315 113.253 3.90189C113.192 3.73062 113.096 3.57405 112.971 3.44222C112.845 3.31039 112.694 3.20622 112.526 3.13641C112.358 3.0666 112.177 3.03269 111.996 3.03686C111.811 3.03454 111.628 3.06917 111.457 3.13871C111.286 3.20824 111.131 3.31127 111.001 3.44173C110.87 3.57218 110.767 3.72742 110.698 3.8983C110.629 4.06917 110.594 4.25222 110.596 4.43666H110.596Z" fill="white"/>
</svg>
