<svg width="140" height="33" viewBox="0 0 140 33" fill="none" xmlns="http://www.w3.org/2000/svg">
<path d="M45.9022 4.29189C45.924 4.73222 45.856 5.17238 45.7023 5.58558C45.5485 5.99878 45.3123 6.37637 45.008 6.69536C44.6669 7.04907 44.255 7.32679 43.7993 7.51036C43.3435 7.69392 42.8541 7.77919 42.3631 7.76059C41.8689 7.76502 41.3789 7.67062 40.9218 7.48295C40.4646 7.29528 40.0496 7.01812 39.7011 6.66777C39.3527 6.31742 39.0777 5.90094 38.8925 5.44281C38.7073 4.98469 38.6155 4.49416 38.6226 4.00005C38.6156 3.50593 38.7074 3.0154 38.8926 2.55726C39.0778 2.09913 39.3528 1.68263 39.7012 1.33224C40.0497 0.981853 40.4647 0.704638 40.9218 0.516883C41.3789 0.329128 41.8689 0.234619 42.3631 0.238909C42.8711 0.237374 43.3741 0.340091 43.8409 0.540708C44.2744 0.716437 44.6603 0.992079 44.9671 1.34518L44.3342 1.97854C44.093 1.69468 43.7899 1.47003 43.4481 1.32191C43.1063 1.17379 42.7351 1.10617 42.3631 1.12427C41.9886 1.12233 41.6175 1.19599 41.2722 1.34084C40.9268 1.4857 40.6143 1.69876 40.3532 1.96727C40.0922 2.23578 39.888 2.55422 39.7529 2.90351C39.6178 3.2528 39.5546 3.62576 39.5671 4.00005C39.5582 4.56068 39.7159 5.11134 40.0204 5.5822C40.3248 6.05306 40.7622 6.4229 41.2771 6.64484C41.792 6.86678 42.3612 6.93082 42.9126 6.82882C43.4639 6.72683 43.9726 6.46341 44.374 6.07196C44.7435 5.67385 44.9577 5.15626 44.9775 4.61349H42.3631V3.74865H45.8518C45.8848 3.92786 45.9017 4.10967 45.9022 4.29189Z" fill="white" stroke="white" stroke-width="0.2" stroke-miterlimit="10"/>
<path d="M51.4334 1.2849H48.1545V3.56765H51.1112V4.43261H48.1545V6.71535H51.4334V7.60011H47.2299V0.400146H51.4334V1.2849Z" fill="white" stroke="white" stroke-width="0.2" stroke-miterlimit="10"/>
<path d="M55.3345 7.60011H54.4087V1.2849H52.3978V0.400146H57.3455V1.2849H55.3345V7.60011Z" fill="white" stroke="white" stroke-width="0.2" stroke-miterlimit="10"/>
<path d="M60.9255 7.60011V0.400146H61.8501V7.60011H60.9255Z" fill="white" stroke="white" stroke-width="0.2" stroke-miterlimit="10"/>
<path d="M65.954 7.60011H65.0282V1.2849H63.0174V0.400146H67.965V1.2849H65.954V7.60011Z" fill="white" stroke="white" stroke-width="0.2" stroke-miterlimit="10"/>
<path d="M77.3312 6.66966C76.6304 7.36835 75.6811 7.7607 74.6915 7.7607C73.7019 7.7607 72.7527 7.36835 72.0519 6.66966C71.7052 6.31851 71.4327 5.90123 71.2505 5.44264C71.0683 4.98404 70.9802 4.49349 70.9914 4.00016C70.9802 3.50682 71.0683 3.01627 71.2505 2.55767C71.4327 2.09908 71.7052 1.6818 72.0519 1.33065C72.3983 0.98417 72.8096 0.709408 73.2623 0.522091C73.715 0.334774 74.2002 0.23858 74.6902 0.239015C75.1801 0.23945 75.6651 0.336505 76.1175 0.524625C76.5699 0.712745 76.9807 0.988236 77.3265 1.33533C77.6734 1.68555 77.9465 2.1019 78.1295 2.55966C78.3125 3.01742 78.4016 3.50728 78.3917 4.00016C78.4026 4.49345 78.3144 4.98391 78.1322 5.44247C77.95 5.90102 77.6776 6.31833 77.3312 6.66966ZM72.7351 6.06678C73.2541 6.58493 73.9575 6.87595 74.6909 6.87595C75.4243 6.87595 76.1278 6.58493 76.6468 6.06678C76.913 5.79429 77.1211 5.47066 77.2587 5.11546C77.3963 4.76025 77.4604 4.38084 77.4472 4.00016C77.4604 3.61947 77.3963 3.24006 77.2587 2.88486C77.1211 2.52965 76.913 2.20602 76.6468 1.93352C76.1278 1.41538 75.4243 1.12436 74.6909 1.12436C73.9575 1.12436 73.2541 1.41538 72.7351 1.93352C72.4693 2.20624 72.2615 2.52993 72.1241 2.8851C71.9868 3.24028 71.9227 3.61958 71.9359 4.00016C71.9227 4.38073 71.9868 4.76003 72.1241 5.11521C72.2615 5.47038 72.4693 5.79407 72.7351 6.06678Z" fill="white" stroke="white" stroke-width="0.2" stroke-miterlimit="10"/>
<path d="M79.6901 7.60011V0.400146H80.8163L84.3155 6.00112H84.3553L84.3155 4.61357V0.400146H85.2413V7.60011H84.2757L80.6147 1.72782H80.5749L80.6147 3.11537V7.60011H79.6901Z" fill="white" stroke="white" stroke-width="0.2" stroke-miterlimit="10"/>
<path d="M70.763 18.1019C69.7544 18.1057 68.7695 18.4083 67.9327 18.9714C67.096 19.5345 66.4448 20.333 66.0615 21.2659C65.6781 22.1988 65.5798 23.2244 65.779 24.2132C65.9781 25.202 66.4657 26.1096 67.1802 26.8214C67.8948 27.5332 68.8042 28.0174 69.7937 28.2128C70.7833 28.4081 71.8085 28.3059 72.7399 27.919C73.6714 27.5322 74.4674 26.878 75.0273 26.0391C75.5873 25.2002 75.8861 24.2142 75.8861 23.2056C75.896 22.531 75.7701 21.8612 75.5159 21.2363C75.2617 20.6113 74.8844 20.0439 74.4064 19.5677C73.9284 19.0915 73.3596 18.7164 72.7336 18.4646C72.1077 18.2127 71.4375 18.0894 70.763 18.1019ZM70.763 26.2988C70.1418 26.3431 69.5217 26.1993 68.9834 25.8863C68.4451 25.5732 68.0135 25.1053 67.7449 24.5435C67.4762 23.9818 67.3829 23.3521 67.4771 22.7365C67.5713 22.121 67.8486 21.548 68.273 21.0923C68.6974 20.6366 69.2491 20.3192 69.8564 20.1814C70.4637 20.0437 71.0984 20.092 71.6779 20.32C72.2574 20.548 72.7548 20.9452 73.1053 21.4599C73.4559 21.9746 73.6434 22.5828 73.6434 23.2056C73.6623 23.599 73.6022 23.9922 73.4668 24.362C73.3314 24.7319 73.1234 25.0709 72.855 25.3591C72.5866 25.6474 72.2632 25.879 71.9039 26.0404C71.5446 26.2017 71.1567 26.2896 70.763 26.2988ZM59.5869 18.1019C58.5783 18.1057 57.5934 18.4082 56.7567 18.9714C55.9199 19.5345 55.2687 20.3329 54.8854 21.2658C54.502 22.1988 54.4037 23.2244 54.6028 24.2131C54.8019 25.2019 55.2895 26.1095 56.0041 26.8214C56.7186 27.5332 57.628 28.0174 58.6176 28.2128C59.6071 28.4081 60.6323 28.3059 61.5638 27.9191C62.4952 27.5322 63.2912 26.878 63.8512 26.0391C64.4111 25.2002 64.71 24.2142 64.7099 23.2056C64.7199 22.531 64.594 21.8613 64.3398 21.2363C64.0856 20.6113 63.7083 20.0439 63.2303 19.5677C62.7524 19.0916 62.1835 18.7164 61.5576 18.4646C60.9317 18.2128 60.2615 18.0894 59.5869 18.1019ZM59.5869 26.2988C58.9658 26.3431 58.3457 26.1993 57.8074 25.8863C57.2691 25.5732 56.8375 25.1053 56.5688 24.5435C56.3002 23.9818 56.2069 23.3521 56.3011 22.7365C56.3953 22.121 56.6726 21.548 57.097 21.0923C57.5214 20.6366 58.0731 20.3192 58.6804 20.1814C59.2877 20.0437 59.9224 20.092 60.5019 20.32C61.0813 20.548 61.5787 20.9452 61.9293 21.4599C62.2799 21.9746 62.4674 22.5828 62.4674 23.2056C62.4863 23.599 62.4262 23.9922 62.2908 24.362C62.1554 24.7319 61.9474 25.0709 61.679 25.3591C61.4106 25.6474 61.0872 25.879 60.7279 26.0404C60.3686 26.2018 59.9807 26.2896 59.5869 26.2988ZM46.2924 19.6679V21.833H51.4736C51.3989 22.8486 50.9833 23.8091 50.2943 24.5589C49.7751 25.0882 49.1507 25.5027 48.4614 25.7757C47.7721 26.0487 47.0332 26.1742 46.2924 26.1441C44.778 26.1236 43.3326 25.5076 42.2689 24.4294C41.2052 23.3513 40.6089 21.8976 40.6089 20.3831C40.6089 18.8685 41.2052 17.4149 42.2689 16.3367C43.3326 15.2585 44.778 14.6425 46.2924 14.622C47.7471 14.603 49.1505 15.1588 50.1977 16.1686L51.7249 14.6413C51.0104 13.9339 50.1618 13.3763 49.229 13.0012C48.2961 12.6261 47.2978 12.441 46.2924 12.4567C45.2418 12.4414 44.1987 12.6352 43.2236 13.0266C42.2485 13.4181 41.361 13.9995 40.6126 14.7371C39.8643 15.4746 39.27 16.3536 38.8644 17.3228C38.4588 18.2921 38.2499 19.3323 38.2499 20.3831C38.2499 21.4338 38.4588 22.474 38.8644 23.4433C39.27 24.4126 39.8643 25.2915 40.6126 26.0291C41.361 26.7666 42.2485 27.348 43.2236 27.7395C44.1987 28.131 45.2418 28.3247 46.2924 28.3094C47.319 28.352 48.3428 28.1757 49.2961 27.7924C50.2494 27.4091 51.1102 26.8275 51.8215 26.0862C53.0844 24.7077 53.7576 22.8896 53.6969 21.0211C53.7018 20.5673 53.6629 20.1141 53.5807 19.6679H46.2924ZM100.662 21.3497C100.355 20.4252 99.7715 19.6176 98.9898 19.0366C98.2082 18.4555 97.2666 18.1292 96.2929 18.1019C95.6372 18.1059 94.9891 18.2429 94.3878 18.5046C93.7865 18.7662 93.2444 19.1471 92.7945 19.6241C92.3446 20.1012 91.996 20.6645 91.77 21.2801C91.5439 21.8957 91.445 22.5507 91.4793 23.2056C91.4645 23.8766 91.5851 24.5437 91.834 25.167C92.0828 25.7904 92.4547 26.3572 92.9275 26.8336C93.4002 27.31 93.9642 27.6862 94.5856 27.9398C95.2071 28.1933 95.8732 28.319 96.5443 28.3094C97.3851 28.314 98.2139 28.1098 98.9562 27.715C99.6985 27.3202 100.331 26.7472 100.797 26.0475L99.0575 24.8876C98.7968 25.3205 98.4281 25.6782 97.9875 25.9256C97.547 26.173 97.0496 26.3016 96.5443 26.2988C96.0244 26.3187 95.5104 26.1819 95.0692 25.9061C94.6279 25.6303 94.2797 25.2283 94.0697 24.7522L100.894 21.9297L100.662 21.3497ZM93.7025 23.051C93.6785 22.6795 93.7288 22.307 93.8505 21.9552C93.9721 21.6034 94.1628 21.2794 94.4112 21.0022C94.6596 20.725 94.9608 20.5001 95.2972 20.3407C95.6336 20.1813 95.9984 20.0905 96.3702 20.0738C96.7574 20.0483 97.1436 20.1374 97.4805 20.3299C97.8174 20.5225 98.0902 20.8099 98.2649 21.1565L93.7025 23.051ZM88.154 28H90.3965V12.9982H88.154V28ZM84.4808 19.2425H84.4035C84.0626 18.872 83.6465 18.5787 83.1831 18.382C82.7196 18.1853 82.2196 18.0898 81.7163 18.1019C80.4002 18.1579 79.1567 18.7201 78.2453 19.6711C77.3339 20.6221 76.8251 21.8884 76.8251 23.2056C76.8251 24.5228 77.3339 25.7892 78.2453 26.7402C79.1567 27.6912 80.4002 28.2534 81.7163 28.3094C82.2215 28.3228 82.7237 28.226 83.1878 28.0257C83.6519 27.8254 84.0667 27.5264 84.4035 27.1495H84.4808V27.8841C84.4808 29.8367 83.4369 30.8806 81.7549 30.8806C81.1943 30.8672 80.6505 30.6872 80.1926 30.3636C79.7347 30.0399 79.3835 29.5873 79.1838 29.0633L77.2312 29.8754C77.5992 30.7714 78.2263 31.5371 79.0323 32.0744C79.8382 32.6117 80.7863 32.8961 81.7549 32.8912C84.3842 32.8912 86.6074 31.3446 86.6074 27.5747V18.4111H84.4808V19.2425ZM81.9097 26.2988C81.1346 26.2331 80.4124 25.8787 79.8861 25.3059C79.3598 24.7331 79.0677 23.9835 79.0677 23.2056C79.0677 22.4277 79.3598 21.6782 79.8861 21.1054C80.4124 20.5325 81.1346 20.1782 81.9097 20.1125C82.2953 20.1313 82.6732 20.2276 83.0208 20.3956C83.3685 20.5635 83.6787 20.7998 83.9331 21.0902C84.1874 21.3807 84.3807 21.7194 84.5014 22.0861C84.6221 22.4529 84.6677 22.8401 84.6355 23.2249C84.6656 23.6072 84.6184 23.9918 84.4965 24.3554C84.3746 24.7191 84.1806 25.0544 83.9262 25.3414C83.6717 25.6284 83.362 25.8611 83.0155 26.0256C82.669 26.1901 82.2929 26.283 81.9097 26.2988ZM111.167 12.9984H105.801V28H108.04V22.3164H111.167C111.8 22.3511 112.434 22.2563 113.029 22.0379C113.625 21.8194 114.169 21.4819 114.63 21.0458C115.091 20.6098 115.457 20.0844 115.708 19.5018C115.959 18.9192 116.088 18.2916 116.088 17.6574C116.088 17.0231 115.959 16.3955 115.708 15.813C115.457 15.2304 115.091 14.705 114.63 14.269C114.169 13.8329 113.625 13.4954 113.029 13.2769C112.434 13.0585 111.8 12.9637 111.167 12.9984ZM111.225 20.2286H108.04V15.0863H111.225C111.567 15.0792 111.907 15.1405 112.225 15.2665C112.543 15.3925 112.833 15.5808 113.077 15.8202C113.322 16.0597 113.516 16.3455 113.649 16.661C113.781 16.9765 113.85 17.3152 113.85 17.6575C113.85 17.9997 113.781 18.3384 113.649 18.6539C113.516 18.9694 113.322 19.2552 113.077 19.4947C112.833 19.7341 112.543 19.9224 112.225 20.0484C111.907 20.1744 111.567 20.2357 111.225 20.2286ZM125.063 18.0743C124.245 18.0266 123.432 18.2185 122.722 18.6265C122.013 19.0344 121.437 19.6407 121.067 20.3709L123.055 21.2009C123.252 20.8384 123.551 20.5413 123.914 20.3459C124.278 20.1505 124.69 20.0653 125.101 20.1007C125.669 20.0452 126.236 20.2173 126.677 20.579C127.119 20.9408 127.399 21.4628 127.456 22.0307V22.1851C126.737 21.8031 125.935 21.6042 125.12 21.6061C122.978 21.6061 120.797 22.7834 120.797 24.9836C120.818 25.4473 120.932 25.9021 121.132 26.321C121.332 26.7398 121.614 27.1143 121.961 27.4221C122.309 27.7299 122.714 27.9648 123.154 28.1128C123.594 28.2609 124.059 28.319 124.522 28.2838C125.086 28.317 125.648 28.1984 126.151 27.9405C126.653 27.6825 127.077 27.2946 127.379 26.8171H127.456V27.9751H129.617V22.2237C129.617 19.5603 127.629 18.0743 125.063 18.0743ZM124.792 26.2959C124.059 26.2959 123.036 25.9293 123.036 25.0221C123.036 23.8642 124.31 23.4202 125.41 23.4202C126.125 23.4012 126.831 23.5745 127.456 23.9221C127.373 24.5728 127.058 25.1717 126.569 25.6081C126.079 26.0444 125.448 26.2888 124.792 26.2959ZM137.492 18.4024L134.925 24.9063H134.847L132.184 18.4024H129.772L133.767 27.4925L131.489 32.5491H133.825L139.981 18.4024H137.492ZM117.323 28H119.562V12.9984H117.323V28Z" fill="white"/>
<path d="M1.52273 1.04562C1.12924 1.5161 0.930549 2.11925 0.967374 2.73149V29.2707C0.930442 29.8829 1.12914 30.4861 1.52273 30.9565L1.61153 31.0431L16.4783 16.1765V15.8257L1.61153 0.958496L1.52273 1.04562Z" fill="url(#paint0_linear_0_1)"/>
<path d="M21.4335 21.1343L16.4783 16.1766V15.8258L21.4347 10.8694L21.5464 10.9331L27.4178 14.2692C29.0949 15.222 29.0949 16.781 27.4178 17.7344L21.5464 21.0705L21.4335 21.1343Z" fill="url(#paint1_linear_0_1)"/>
<path d="M21.5464 21.0699L16.4782 16.0012L1.52271 30.9566C1.86443 31.258 2.30081 31.4304 2.75625 31.4438C3.21169 31.4573 3.65749 31.311 4.01641 31.0303L21.5464 21.0699Z" fill="url(#paint2_linear_0_1)"/>
<path d="M21.5464 10.9324L4.01641 0.971986C3.65749 0.6913 3.21169 0.545013 2.75625 0.558469C2.30081 0.571926 1.86443 0.744278 1.52271 1.04567L16.4782 16.0012L21.5464 10.9324Z" fill="url(#paint3_linear_0_1)"/>
<path opacity="0.2" d="M21.4347 20.9583L4.01641 30.855C3.67131 31.1177 3.25012 31.261 2.81641 31.2633C2.38269 31.2656 1.95999 31.1268 1.6121 30.8678L1.52271 30.9572L1.61151 31.0437L1.6121 31.0431C1.95993 31.3023 2.38265 31.4412 2.81641 31.4389C3.25016 31.4366 3.67137 31.2931 4.01641 31.0303L21.5464 21.0699L21.4347 20.9583Z" fill="black"/>
<path opacity="0.12" d="M1.5227 30.7818C1.12925 30.3113 0.930564 29.7082 0.967346 29.0959V29.2713C0.930542 29.8835 1.12923 30.4866 1.5227 30.9571L1.6121 30.8677L1.5227 30.7818Z" fill="black"/>
<path opacity="0.12" d="M27.4177 17.5585L21.4347 20.9583L21.5464 21.0699L27.4177 17.7338C27.7631 17.5839 28.062 17.3442 28.2832 17.0395C28.5045 16.7349 28.64 16.3765 28.6757 16.0017C28.6015 16.3411 28.4491 16.6586 28.2307 16.9288C28.0124 17.199 27.734 17.4146 27.4177 17.5585Z" fill="black"/>
<path opacity="0.25" d="M4.01641 1.14786L27.4177 14.4438C27.7341 14.5876 28.0126 14.8033 28.231 15.0736C28.4493 15.344 28.6016 15.6616 28.6757 16.0011C28.6402 15.6262 28.5048 15.2676 28.2836 14.9629C28.0623 14.6581 27.7633 14.4183 27.4177 14.2685L4.01641 0.972543C2.3393 0.0196281 0.967346 0.811144 0.967346 2.73209V2.90741C0.967346 0.986583 2.3393 0.195067 4.01641 1.14786Z" fill="white"/>
<defs>
<linearGradient id="paint0_linear_0_1" x1="15.1599" y1="2.45166" x2="-4.97892" y2="22.5905" gradientUnits="userSpaceOnUse">
<stop stop-color="#00A0FF"/>
<stop offset="0.00657" stop-color="#00A1FF"/>
<stop offset="0.2601" stop-color="#00BEFF"/>
<stop offset="0.5122" stop-color="#00D2FF"/>
<stop offset="0.7604" stop-color="#00DFFF"/>
<stop offset="1" stop-color="#00E3FF"/>
</linearGradient>
<linearGradient id="paint1_linear_0_1" x1="29.6014" y1="16.0018" x2="0.56525" y2="16.0018" gradientUnits="userSpaceOnUse">
<stop stop-color="#FFE000"/>
<stop offset="0.4087" stop-color="#FFBD00"/>
<stop offset="0.7754" stop-color="#FFA500"/>
<stop offset="1" stop-color="#FF9C00"/>
</linearGradient>
<linearGradient id="paint2_linear_0_1" x1="18.7925" y1="18.7553" x2="-8.51732" y2="46.0651" gradientUnits="userSpaceOnUse">
<stop stop-color="#FF3A44"/>
<stop offset="1" stop-color="#C31162"/>
</linearGradient>
<linearGradient id="paint3_linear_0_1" x1="-2.24296" y1="-7.78847" x2="9.952" y2="4.40649" gradientUnits="userSpaceOnUse">
<stop stop-color="#32A071"/>
<stop offset="0.0685" stop-color="#2DA771"/>
<stop offset="0.4762" stop-color="#15CF74"/>
<stop offset="0.8009" stop-color="#06E775"/>
<stop offset="1" stop-color="#00F076"/>
</linearGradient>
</defs>
</svg>
